<svg enable-background="new 0 0 100 100" fill="#666" height="100" viewBox="0 0 100 100" width="100" xmlns="http://www.w3.org/2000/svg"><path d="m87.233 22.555c-4.011-6.498-10.434-10.457-17.614-10.86-9.965-.569-16.334 3.958-19.929 8.71-.056-.073-.117-.149-.172-.221-.056.072-.12.148-.176.221-3.595-4.751-9.959-9.279-19.929-8.71-7.178.403-13.603 4.363-17.612 10.86-5.964 9.662-4.625 22.998 3.417 33.981 2.203 3.007 4.838 6.51 7.67 9.671 6.961 7.752 15.442 14.995 24.534 20.946l1.92 1.254.176-.114.172.114 1.924-1.254c9.088-5.952 17.572-13.194 24.532-20.946 2.833-3.161 5.465-6.664 7.668-9.671 8.045-10.983 9.384-24.319 3.419-33.981zm-9.078 29.837c-2.099 2.869-4.605 6.196-7.234 9.134-6.06 6.748-13.383 13.047-21.231 18.411-.056-.043-.117-.084-.172-.127-.056.043-.12.084-.176.127-7.848-5.364-15.17-11.663-21.23-18.411-2.63-2.938-5.133-6.266-7.231-9.134-4.82-6.583-8.528-17.381-3.111-26.152 1.639-2.652 5.386-7.164 12.043-7.542 10.17-.578 17.153 9.053 19.706 13.259 2.553-4.206 9.532-13.837 19.705-13.259 6.658.378 10.404 4.89 12.041 7.542 5.416 8.771 1.709 19.569-3.11 26.152z"/></svg>