<?xml version="1.0" encoding="utf-8"?>
<!-- Generator: Adobe Illustrator 23.0.6, SVG Export Plug-In . SVG Version: 6.00 Build 0)  -->
<svg version="1.1" id="Layer_1" xmlns="http://www.w3.org/2000/svg" xmlns:xlink="http://www.w3.org/1999/xlink" x="0px" y="0px"
	 viewBox="0 0 686.4 432.6" style="enable-background:new 0 0 686.4 432.6;" xml:space="preserve">
<style type="text/css">
	.st0{fill-rule:evenodd;clip-rule:evenodd;fill:#FFFFFF;}
</style>
<path class="st0" d="M686,221.6c-1.3-29.2-6.9-57.6-15.9-85.3c-9.9-30.7-24.2-59.8-42.7-86.3c-6-8.9-13.2-17-21.3-24
	c-9.1-7.6-19.3-13-31.1-15.2c-5.8-1.1-11.6-2-17.6-1.4c-7.4,0.7-14.6,3.2-20.9,7.1c-5.7,3.7-10.9,8.2-15.3,13.3
	c-5.1,5.9-9.9,12.2-14.3,18.7c-5.3,7.5-10.7,14.9-16.2,22.3c-1.3,1.7-2.8,3.3-4.5,5.4c-0.5-0.7-1-1.4-1.5-2.1
	c-15.5-16.6-32.6-31.6-51.6-43.8C413.9,18.2,393.5,9,371.4,4.1c-8.6-2-17.3-3.2-26.1-3.7c-0.7-0.1-1.4-0.2-2.1-0.4h-14.9
	c-0.7,0.2-1.4,0.3-2.1,0.4c-15.5,0.9-30.7,4.4-44.9,10.5c-16.1,6.7-30.8,15.9-44.7,26.4c-13.4,10.1-26,21.3-38.4,32.6
	c-5.2,4.8-11.2,6.1-18,4.5c-2.7-0.7-5.2-2.1-7.2-4.1c-2.7-2.5-5-5.4-6.9-8.6c-2-3.3-3.9-6.6-5.9-9.9c-3.4-5.6-7.8-10.6-13.1-14.5
	c-5.3-3.9-11.1-6.4-17.7-6.4c-5.4,0-10.7,1.7-15.1,4.8c-4.3,3-8.1,6.8-11.2,11.1C96.7,56,91.6,66.2,88.1,76.9
	c-6.1,17.5-8.4,36.1-6.9,54.6c0.3,2.9,0.7,5.7,1,8.7c-1,0.3-1.8,0.7-2.7,1C64,146.6,48.6,152,33.1,157.5
	c-6.9,2.4-10.7,7.5-11.5,14.6c-0.8,8.1,5.4,15.7,13.6,17.1c0.9,0.1,1.9,0.2,2.9,0.3c4.2,0.6,7.5,2.7,9.2,6.5
	c4.6,10.2,8.9,20.5,13.3,30.8c0,0.2,0.1,0.4,0.1,0.6c-1.8-0.4-3.4-0.8-5.1-1.1c-7.2-1.3-14.4-1.8-21.7-1.5
	c-8.4,0.3-16.7,1.7-24.8,4.1c-1.1,0.3-2.3,0.7-3.4,1.2c-2.2,0.8-4,2.5-4.8,4.7c-0.3,0.5-0.6,0.9-0.9,1.3v4.3c0.4,0.6,0.7,1.2,1,1.8
	c1.4,4.7,4.4,8.8,8.6,11.4c2.2,1.4,4.5,2.7,6.8,4c2,1.2,4,2.3,5.9,3.6c7.6,5.3,10.3,12,8.1,21c-1,4.2-2.8,8.2-4.2,12.2s-3,8-4.3,12
	c-1,3.2-1.2,6.7-0.4,10c1.3,6.4,7.2,10.8,13.7,10.2c3.2-0.1,6.2-1.6,8.2-4.2c3.2-3.8,8.8-4.5,12.8-1.5c2.9,2,5,4.8,6.1,8.1
	c1.2,3.4,2.2,6.9,3,10.4c6.7,29.6,28.6,54.3,57.1,63.5c25.9,8.3,50.8,5.9,74.3-8.3c5.4-3.2,11.1-3.8,17.1-2.8
	c6.9,1.1,13.4,4.1,18.7,8.7c4.5,3.7,8.8,7.7,13.1,11.7c6.1,5.7,12.5,11,20.3,14.3c22.2,9.3,43.6,8.3,64-5.1c3.1-2.2,6-4.5,8.7-7.1
	c4.1-3.7,8.1-7.5,12.2-11.2c4.9-4.4,10.9-7.4,17.3-8.8c2.3-0.5,4.6-0.7,6.9-0.7c11.4,0,22.9,0.2,34.3,0c12.9-0.2,25.7-1.3,38.5-2.7
	c12.2-1.3,24.3-3,36.3-5.4c10.8-2.2,21.3-5.4,31-11c10-5.8,17.8-13.6,22.8-24c2.4-5.2,4.1-10.6,5.1-16.2c0.1-0.8,0.3-1.5,0.5-2.4
	c4,1.7,8.1,2.7,12.4,3.2c7.5,1,14.8-0.1,22-2.2c5.8-1.8,11.5-3.8,17.3-5.7c5.1-1.8,10.5-2.9,15.9-3.3c3.5-0.3,7,0.2,10.4,1.3
	c3.6,1.3,7.1,2.5,10.6,3.9c4.4,1.6,8.9,2.6,13.5,3.1c7,0.9,13.3-1.1,18.9-5.2c6.2-4.5,10.4-10.6,13.2-17.6
	c3.2-7.9,5.3-16.3,6.2-24.8c0.9-7.9,1.4-15.8,2.1-23.7c0.1-0.7,0.2-1.4,0.4-2.1v-35C686.2,223,686.1,222.3,686,221.6z M107.2,50.4
	c2.3-3.8,5.2-7.2,8.6-10c6.5-5.2,13.3-5.7,20.5-1.5c3.2,1.9,6,4.3,8.4,7.1c3.3,3.8,6.4,7.8,9.6,11.7c2.2,2.7,4.3,5.6,6.5,8.3
	c5.7,7.1,12,13.6,20.4,17.6l-14,15.1c-0.2-0.1-0.8-0.4-1.2-0.8c-9.8-7.1-17.8-16.5-23.3-27.3c-1-1.9-1.9-3.9-2.9-5.8
	c-0.9-1.7-2-3.3-3.1-4.8c-4-4.9-10-5.9-15.5-2.6c-3.1,1.8-5.7,4.5-7.3,7.8c-1.8,3.6-3.4,7.2-4.8,11c-6.6,18-8.6,37.3-5.9,56.2
	c0.1,0.8,0.2,1.7,0.3,2.8c-4.2,1.1-8.2,2.2-12.2,3.1c-1.8,0.4-2.6-0.3-3-2.2c-0.3-1.9-0.6-3.8-0.7-5.7
	C85.2,101.6,91.7,74.9,107.2,50.4z M116,278.5c11,2.3,22.2,2.9,33.4,1.9c3.5-0.3,7-0.4,10.4-0.2c-0.8,2.3-1.5,4.4-2.3,6.5
	c-0.2,0.4-0.5,0.8-0.9,1.1c-5.3,3.5-10.9,6.3-17.3,7.2c-4.7,0.6-9.2-0.3-13.7-1.7c-1.8-0.6-3.4-1.8-4.6-3.3c-2.4-3-4.7-6-7-9.1
	c-0.5-0.8-0.8-1.7-1.1-2.6C114,278.3,115,278.4,116,278.5z M112.9,224.8c-0.2-1.3-0.5-2.6-0.6-3.9c-0.2-4.6,0.3-9.1,1.7-13.5
	c6-22.3,12-44.6,18-66.9c0.6-2.4,1.8-4,4.5-4.1c2.1-0.1,4.3-0.6,6.4-0.9c0.6,0,1.1,0,1.7,0c0,0.3,0,0.5-0.1,0.8
	c-2.7,4.4-3.9,9.2-5.3,14.1c-6.7,23.7-14.2,47.1-22.7,70.2c-0.3,0.9-0.7,1.8-1.2,2.6C115,224.2,114,224.8,112.9,224.8z M143.5,266.5
	c-0.3,1.4-0.7,2.8-1.3,4.1c-0.4,0.7-1,1.2-1.7,1.4c-1.9,0.4-11.1-0.4-13.2-1.1c1.7-7.3,3.5-14.6,5.2-21.9
	c4.9-20,10.1-39.8,16.9-59.2c1.7-5,3.7-9.9,5.7-14.7c1.8-4.3,4.3-8.2,7.4-11.7c0.6-0.7,1.2-1.3,1.9-2c1.6,1.3,1.4,2.9,1.1,4.5
	c-0.8,3.9-1.5,7.8-2.3,11.8C157,207.3,150.5,237,143.5,266.5z M147.9,125.6c-1.3,2-3.5,3.3-5.9,3.5c-9.3,1.1-18.5,2.4-27.8,3.7
	c-4.2,0.6-4.3,0.5-4.7-3.7c-0.3-4.4-0.6-8.8-0.9-13.2c0.1-16.6,3.6-33,10.3-48.2c0.2-0.4,0.4-0.9,0.6-1.3c2.6-5.4,8.1-6.2,11.8-1.4
	c1.5,2.1,2.7,4.3,3.6,6.7c5.1,11.7,13.3,21.6,23.8,28.8c0.9,0.6,1.8,1.1,2.6,1.7c1.4,0.9,1.5,1.5,0.8,3c-0.3,0.6-0.6,1.1-1,1.6
	C156.8,113.1,152.2,119.3,147.9,125.6z M71.4,231.8c0.6-3.5,1.3-6.9,2.3-10.3c8.4-25.2,16.9-50.4,25.3-75.7c0.8-2.2,2-3.6,4.5-4
	c2.8-0.5,5.6-1.4,8.4-2c0.9-0.2,1.8-0.3,2.7-0.4c-3.9,4.3-5.3,9.5-6.9,14.5l-25.1,78.8c-0.2,0.6-0.4,1.2-0.6,1.8
	c0,0.1-0.1,0.2-0.1,0.3c-1.1,2.2-3.7,3.1-5.9,2c-1.5-0.9-2.9-1.9-4.1-3.2C71.4,233.2,71.2,232.5,71.4,231.8z M676.2,254.1
	c-0.2,11.4-1.1,22.9-2.8,34.2c-1,6.7-2.7,13.1-5.9,19.1c-3.8,6.9-9.3,11.4-17.2,13c-4.2,1-8.7,0.5-12.6-1.3
	c-8.1-3.8-16.9-4.7-25.8-4c-8.7,0.7-17,3-25.3,5.2c-6.9,1.9-14.1,3.1-21.3,3.4c-6.3,0.4-12.7-0.8-18.5-3.2c-1.9-0.9-2.9-1.9-2.9-4.3
	c-0.1-7.7-0.8-15.3-3-22.8c-4.1-14.2-13.1-26.5-25.3-34.8c-2.9-2-5.9-3.8-8.9-5.6c-0.7-0.3-1.4-0.6-2.1-0.8l-0.4,0.5h0
	c0.5,0.6,1,1.3,1.6,1.9c5.9,6.6,11.1,13.7,15.5,21.3c6,10.4,10.3,21.5,11.7,33.5c2.2,20.3-3.6,38-18.4,52.3
	c-6.5,6.2-14.8,10.3-23.7,11.7c-14.4,2.6-28.9,4.7-43.4,6.1c-21.7,2-43.4,2.7-65.2,1.9c-5.2-0.2-10.4-0.6-15.6-0.9
	c-0.4,0-0.8-0.1-1.3-0.2c0.4-1.9,0.8-3.8-0.2-5.6c-0.6-1.3-1.8-2.4-3.2-2.8c-0.4,0.7-0.9,1.4-1.3,2.1c-6,10-13.3,19.1-21.8,27
	c-8,7.3-16.9,13.1-27.5,16.1c-13,3.7-25.6,2.4-38-2.6c-10.1-4.2-19.5-10-27.8-17.2c-7.1-6-13.8-12.4-20.6-18.7
	c-0.3-0.3-0.5-0.6-0.8-0.9c1.3-2,3.6-3,5.9-2.5c2,0.4,3.8,1,5.6,1.9c3.3,1.8,6.2,4.2,8.7,7.1c5.3,6,11.5,11.2,18.3,15.4
	c7.3,4.7,15.6,7.6,24.2,8.5c9.1,0.8,18.3-1.3,26.2-6c8.1-4.6,14.8-10.9,20.8-18c11.6-13.8,21.2-29.1,29.4-45.1
	c4.3-8.5,8.2-17.2,11.6-26c2-5.7,4.8-11,8.2-16c1.8-2.6,4-4.8,6.5-6.7c2.7-2,6.1-3,9.5-2.8c3.2,0.3,4.6,1.8,4.6,5
	c0,0.9-0.3,1.7-0.3,2.6c-0.1,1.3,0,2.5,0.3,3.8c0.5,1.5,1.5,1.7,2.8,0.9c1.4-0.9,2.5-2.3,3-3.9c0.3-0.9,0.4-1.7,0.5-2.6
	c0.6-6.6-4.4-12.4-11-13c-3.8-0.3-7.7,0.3-11.3,1.8c-3.3,1.3-6.5,2.7-9.7,4.2c-25.1,12.3-51.2,22.3-78,30c-0.9,0.2-1.7,0.4-2.9,0.7
	c0.4-0.8,0.6-1.4,0.9-1.9c2.8-5.1,5.6-10.2,8.4-15.4c0.4-0.7,1.1-1.4,0.5-2.7c-0.9,0.7-1.7,1.3-2.4,2c-15.2,14-30.4,27.9-45.7,41.8
	c-11.3,10.5-23.2,20.1-35.8,29c-13.1,9-27,16.5-42.3,21.1c-11.1,3.6-22.8,5.3-34.5,5c-20.4-0.6-38.3-7.4-52.9-22.1
	c-8.4-8.6-14.4-18.5-16.8-30.4c-0.7-3.8-1.1-7.7-1.2-11.7c-0.3-10.5-7.4-19.5-17.5-22.4c-8.8-2.3-18.9,1.3-24.5,8.8l-1.5,2
	c-2.4-3.3-3.2-7.4-2.4-11.3c0.7-3.4,1.7-6.6,2.9-9.9c1.4-4,3.2-7.8,4.7-11.8c1.3-3.2,2-6.6,2.3-10c0.4-5.3-1.4-10.6-5-14.6
	c-2.1-2.4-4.5-4.6-6.9-6.6c-3.7-3.1-7.6-5.9-11.3-9c-3-2.4-5.5-5.3-7.5-8.7c17.2-6.1,48.1-5.4,72.2,12.7
	c21.5,16.1,32.5,38,34.5,64.7c4.7-2.1,7-8.6,5.7-16c0.2,0,0.4,0,0.6,0.1c5.1,3.4,10.7,3.6,16.6,2.7s11.4-3,16.9-5.3
	c5.7-2.3,11.5-4.2,17.8-4.7s12,0.6,16.6,5.2c0.1,0.1,0.3,0.1,0.4,0.1c0.7-3.9-2.7-8.8-7.8-11.5c-4.3-2.4-9.6-2.6-14-0.3
	c-1.2-9.1,7.7-25.2,18.9-34.2c10.9-8.7,23.3-12.8,37.3-11.8l0.1-0.5c-0.4-0.4-0.8-0.7-1.3-1c-5.7-2.8-12.1-3.9-18.4-3.2
	c-6.4,0.6-12.5,3-17.6,7c-0.2,0.2-0.5,0.3-1.1,0.6c0.1-0.4,0.3-0.8,0.5-1.2c5.1-8.4,10.3-16.7,16.8-24.2c4.1-4.9,8.9-9.3,14.1-12.9
	c9-6.4,20.1-9.3,31.1-8.3c6.8,0.5,13.2,3.1,18.3,7.5c0.5,0.4,1,0.8,1.5,1.2c0.3-2.4-2.1-6.1-5.5-9.1c-2.8-2.3-6-4-9.5-4.9
	c2.9-1.1,6-1.3,9-0.7c6.8,1,12.4,4.5,17.4,9c5.4,4.8,9.7,10.7,12.9,17.2c2.6,5.3,4.8,10.8,7.3,16.2c1.9,4.1,3.8,8.3,5.9,12.3
	c7,13.5,18,21.9,32.7,25.7c7.3,1.8,14.7,3,22.2,3.8c14.9,1.6,29.8,2.4,44.8,2.4c9.4,0.1,18.9-0.5,28.2-1.7c20-3,35.6-12.6,46.3-30
	c3-4.8,5.5-9.9,7.6-15.2c4.5-11,7.3-22.5,9.6-34.1c0.4-2.5,1.1-5,2-7.4c1.9-4.6,5.6-6.9,10.6-7.5c2-0.2,3.9-0.7,5.7-1.5
	c6-2.5,9.9-8.4,9.8-14.9c-0.2-6.8-4.5-12.9-10.9-15.3c-6.3-2.2-12.7-4.4-19.1-6.3c-12.4-3.6-24.9-7.1-37.4-10.4
	c-14.7-3.9-29.6-6.8-44.7-8.7c-13.9-1.8-27.9-2.3-41.9-1.5c-21.6,1.4-42.4,6-61.8,15.8c-3.8,2-7.6,4.2-11.5,6
	c-3.1,1.4-6.4,2.5-9.7,3.4c-3.6,1-7.5,0.4-10.7-1.6c-4.6-2.8-9.6-3.4-14.8-2.7c-4.7,0.6-9.3,1.6-14.2,2.4c-4.8,0.8-9.7,1.4-14.5,0.3
	c-1.5-0.4-2.9-0.9-4.3-1.5c-15.4-6.9-31.7-11.7-48.4-14.3c-7.7-1.2-15.6-1.9-23.4-2.1c-0.8,0-1.6,0-2.6,0c0.2-0.6,0.5-1.1,0.8-1.7
	c10-16,21.5-30.7,35.3-43.5c4.4-4,9.3-7.6,13.9-11.4c8.8-7.3,17.3-14.9,26.3-22c19-15,39.9-26.7,63-34c16.1-5.2,33-7.4,49.9-6.4
	c16.3,1.1,32.3,4.9,47.4,11.3c18.2,7.5,34.8,17.7,50.3,29.5c12.5,9.6,24.4,19.9,35.5,31c0.4,0.4,0.8,0.8,1.2,1.3
	c-2.2,2.2-3.9,4.5-3.4,8c0.6-0.1,1.1-0.2,1.7-0.4c3.2-1.3,6.1-3.3,8.5-5.7c4.8-4.8,9.6-9.6,14.4-14.4c4.6-4.6,8.8-9.5,12.5-14.8
	c2.9-4.2,5.8-8.3,8.5-12.5c3.2-4.6,6.7-9,10.6-13c6.3-6.8,14.4-10.5,23.4-12.2c12.1-2.3,23.2,0.2,33.6,6.5
	c9.1,5.6,17.1,12.8,23.7,21.2c8.2,10.1,14.8,21.1,21,32.4c14.4,26.3,25.3,54.4,32.4,83.6c2.7,11.1,4.9,22.3,6.6,33.6
	C675.5,214.3,676.7,234.2,676.2,254.1z M292.8,369.3c0.4,1.4,1.6,2.3,3.1,2.3c1.4,0.1,2.7-0.7,3.4-1.9c1.1-1.7,1-3.6,1.1-5.6
	c0-2.6,0.2-5.3,0.7-7.8c0-0.2,0.1-0.4,0.1-0.6c3.5-13.6,17.3-21.8,30.9-18.3c4,0.9,7.4,3.6,9.2,7.4c2.1,4.1,2.6,8.9,1.2,13.3
	c-0.8,2.8-1.8,5.5-3.1,8c-5.8,10.8-13.8,20.3-23.5,27.8c-4.8,3.9-10.5,6.5-16.6,7.7c-1.8,0.3-3.7,0.4-5.5,0.6
	c-7.2-0.1-13.9-2.3-20.2-5.4c-3-1.4-5.9-3.1-8.7-5.1c-5.9-4.3-7.9-10.2-6.1-17.3c1.9-8,6.5-15.1,13-20.2c2.4-2,5.3-3.4,8.4-4
	c3.2-0.7,6.5,0.1,9.1,2c3,2.2,4.5,5.1,3.7,9c-0.4,1.5-0.6,3-0.7,4.5C292.2,366.8,292.4,368.1,292.8,369.3z M181.1,182.3
	c0.5-2.5,0.8-4.6,1.4-6.7c1.7-6.7,4.6-13,8.5-18.6c2.1-3,4.6-3.2,7.2-0.7c2,1.9,2.9,4.7,2.7,7.4c-0.1,1.7-0.3,3.4-0.8,5
	c-1.4,5.6-3.6,10.9-6.5,15.9c-0.7,1.3-1.7,2.5-2.8,3.6c-0.5,0.5-1,0.9-1.6,1.2c-2.5,1.2-5.5,0.1-6.6-2.4
	C181.9,185.5,181.4,183.9,181.1,182.3L181.1,182.3z M308.4,224.4c11.5-29.8,22.9-59.6,34.3-89.5c0.6-1.9,2.2-3.4,4.2-3.7
	c5-1.1,10-1.8,15.1-2.2c-14.1,41.3-28,82.1-42,123.4c-0.6-0.9-1-1.5-1.3-2.1c-3.2-6-6.4-12-9.8-17.9
	C307.5,230,307.3,227,308.4,224.4z M396.9,128.3c2,0.5,2.5,1.3,1.8,3.3c-0.7,2.3-1.5,4.6-2.3,7c-8.6,25.6-17.2,51.2-25.8,76.8
	c-0.2,0.8-0.6,1.7-0.9,2.5c-0.3,0.7-0.8,1.4-1.4,1.9c-0.8,0.8-1.9,1-2.9,0.6c-1-0.4-1.6-1.4-1.4-2.5c0.2-2.4,0.4-4.8,0.7-7.2
	c2.5-20.7,8.4-40.6,15.3-60.3c2.1-6.1,4.4-12.2,6.5-18.3c1.3-3.6,2.7-4.5,6.4-4.6v0C394.2,127.8,395.5,127.9,396.9,128.3z
	 M374,269.8c-2.7-0.1-3-0.5-2-3c5.5-14.9,11-29.8,16.5-44.7c4.4-11.8,8.7-23.5,13.2-35.3c1.7-4.8,4-9.5,6.8-13.8
	c1.1-1.5,2.3-2.9,3.7-4.1c1.2-1.1,3-1.4,4.5-0.9c2,0.6,3.2,2.4,3,4.9c-0.4,4-0.7,8-1.4,11.9c-2,12.3-5.5,24.3-8.5,36.4
	c-3.7,14.7-7.5,29.4-11.3,44.1c-0.2,0.6-0.3,1.2-0.5,1.8c-0.7,2-2,2.9-4.5,2.9c-3.3,0-6.6,0-9.8,0v-0.3
	C380.4,269.7,377.2,269.8,374,269.8z M465.8,183.6c-2.3,4.3-5,8.4-7.5,12.5c0,0.1-0.1,0.1-0.1,0.2c-3.3,4.5-7.3,4.3-10.3-0.4
	c-1.7-2.7-2.5-5.8-2.2-9c0.8-10.5,4-20,10.9-28.1c1-1.2,2.2-2.3,3.5-3.3c3-2.1,6.3-1.3,8.2,1.8c1,1.9,1.5,3.9,1.5,6
	c0.1,1.1,0,2.2,0,3.4C470,172.7,468.7,178.5,465.8,183.6z M237.6,115.6c0,2.8-1.5,3.8-4,3.1c-0.5-0.1-0.9-0.3-1.3-0.5
	c-6.1-2.8-12.9-4-19.6-3.4c-10.4,0.7-20.6,2.4-30.6,5.1c-2.7,0.7-5.2,1.9-7.9,2.8c-1.3,0.5-2.7,1-4.1,1.4c-2,0.6-4.1-0.2-5.3-1.9
	c-1.3-1.6-1.5-3.8-0.5-5.6c0.6-1.2,1.5-2.3,2.5-3.2c14.2-13,30.4-22.2,49.5-25.8c3.1-0.6,6.3-0.9,9.5-1.2c3-0.5,5.9,1.3,6.8,4.1
	c1.1,2.8,1.9,5.7,2.5,8.7c1,4.9,1.7,9.9,2.5,14.9C237.6,114.7,237.6,115.3,237.6,115.6z M438.8,112.5c2.2,2.9,1.6,5.9-1.5,7.7
	c-1.3,0.5-2.6,1-4,1.2c-1.7-0.4-3.4-0.9-5-1.5c-11.5-5.6-23.8-8.3-36.1-11c-7.3-1.8-14.7-2.9-22.2-3.5c-5.9-0.4-11.8,0.1-17.6,1.4
	c-1.2,0.3-2.5,0.5-3.8,0.6c-2.8,0-4-1.7-3-4.3c2.4-6.4,5-12.8,7.6-19.2c0.7-1.5,1.6-3,2.7-4.2c2-2.7,5.3-4.1,8.7-3.5
	c10.5,1.4,20.7,4.1,30.5,8.1c15.2,6,29.2,14.7,41.3,25.7C437.2,110.7,438,111.6,438.8,112.5z M596.2,46.5
	c30,35.9,49.8,79.1,57.6,125.2c-3.8-13-8.4-25.8-14-38.2c-10.5-23.1-22.6-45.4-36.2-66.7c-3.6-5.9-7.9-11.3-12.9-16
	c-6-5.6-13-9.4-21.1-10.6c-8.1-1.2-15.5,0.5-21.7,6c-2.9,2.6-5.5,5.5-7.9,8.7c-5.7,7.4-9.7,15.8-13.4,24.3s-7.2,17.1-11.1,25.5
	c-2.3,4.8-4.9,9.5-7.8,14c-2,3.5-4.8,6.5-8.1,8.8c-2.7,1.8-5.5,3.1-9.2,2.7c0.4-0.5,0.7-0.9,1-1.2c9.5-8.9,16.6-20,20.8-32.4
	c3.9-11.3,8.7-22.2,14.4-32.6c3.8-6.9,8.1-13.4,13.8-18.9c5.7-5.5,12.2-9.5,20.2-10.6c6.1-0.8,12.4-0.2,18.2,1.9
	C585.2,38.5,591.1,42,596.2,46.5z"/>
</svg>
